<mxfile host="app.diagrams.net" modified="2022-12-12T06:34:41.497Z" agent="5.0 (Windows NT 10.0; Win64; x64) AppleWebKit/537.36 (KHTML, like Gecko) Chrome/108.0.0.0 Safari/537.36" etag="M69hzMat8OMqiBoDaROh" version="20.4.1" type="github">
  <diagram id="kgpKYQtTHZ0yAKxKKP6v" name="Page-1">
    <mxGraphModel dx="1185" dy="596" grid="1" gridSize="10" guides="1" tooltips="1" connect="1" arrows="1" fold="1" page="1" pageScale="1" pageWidth="850" pageHeight="1100" math="0" shadow="0">
      <root>
        <mxCell id="0" />
        <mxCell id="1" parent="0" />
        <mxCell id="-moWh7qVt0uN1S0JNPq3-2" value="Scored.cs" style="swimlane;childLayout=stackLayout;horizontal=1;startSize=30;horizontalStack=0;rounded=1;fontSize=14;fontStyle=0;strokeWidth=2;resizeParent=0;resizeLast=1;shadow=0;dashed=0;align=center;" vertex="1" parent="1">
          <mxGeometry x="370" y="326" width="150" height="60" as="geometry">
            <mxRectangle x="70" y="100" width="100" height="30" as="alternateBounds" />
          </mxGeometry>
        </mxCell>
        <mxCell id="-moWh7qVt0uN1S0JNPq3-3" value="GoalScored" style="align=left;strokeColor=none;fillColor=none;spacingLeft=4;fontSize=12;verticalAlign=top;resizable=0;rotatable=0;part=1;" vertex="1" parent="-moWh7qVt0uN1S0JNPq3-2">
          <mxGeometry y="30" width="150" height="30" as="geometry" />
        </mxCell>
        <mxCell id="-moWh7qVt0uN1S0JNPq3-6" value="LevelReporting.cs" style="swimlane;fontStyle=0;childLayout=stackLayout;horizontal=1;startSize=26;horizontalStack=0;resizeParent=1;resizeParentMax=0;resizeLast=0;collapsible=1;marginBottom=0;align=center;fontSize=14;rounded=1;glass=0;shadow=1;swimlaneFillColor=none;" vertex="1" parent="1">
          <mxGeometry x="390" y="130" width="160" height="116" as="geometry" />
        </mxCell>
        <mxCell id="-moWh7qVt0uN1S0JNPq3-7" value="LevelComplete" style="text;strokeColor=none;fillColor=none;spacingLeft=4;spacingRight=4;overflow=hidden;rotatable=0;points=[[0,0.5],[1,0.5]];portConstraint=eastwest;fontSize=12;rounded=1;glass=0;shadow=1;swimlaneFillColor=none;" vertex="1" parent="-moWh7qVt0uN1S0JNPq3-6">
          <mxGeometry y="26" width="160" height="30" as="geometry" />
        </mxCell>
        <mxCell id="-moWh7qVt0uN1S0JNPq3-8" value="LevelReset" style="text;strokeColor=none;fillColor=none;spacingLeft=4;spacingRight=4;overflow=hidden;rotatable=0;points=[[0,0.5],[1,0.5]];portConstraint=eastwest;fontSize=12;rounded=1;glass=0;shadow=1;swimlaneFillColor=none;" vertex="1" parent="-moWh7qVt0uN1S0JNPq3-6">
          <mxGeometry y="56" width="160" height="30" as="geometry" />
        </mxCell>
        <mxCell id="-moWh7qVt0uN1S0JNPq3-9" value="LevelFailed&#xa;" style="text;strokeColor=none;fillColor=none;spacingLeft=4;spacingRight=4;overflow=hidden;rotatable=0;points=[[0,0.5],[1,0.5]];portConstraint=eastwest;fontSize=12;rounded=1;glass=0;shadow=1;swimlaneFillColor=none;" vertex="1" parent="-moWh7qVt0uN1S0JNPq3-6">
          <mxGeometry y="86" width="160" height="30" as="geometry" />
        </mxCell>
        <mxCell id="-moWh7qVt0uN1S0JNPq3-13" value="LevelManager.cs" style="swimlane;fontStyle=0;childLayout=stackLayout;horizontal=1;startSize=26;horizontalStack=0;resizeParent=1;resizeParentMax=0;resizeLast=0;collapsible=1;marginBottom=0;align=center;fontSize=14;rounded=1;glass=0;shadow=1;swimlaneFillColor=none;" vertex="1" parent="1">
          <mxGeometry x="650" y="190" width="160" height="56" as="geometry" />
        </mxCell>
        <mxCell id="-moWh7qVt0uN1S0JNPq3-14" value="OnLevelChangeEvent" style="text;strokeColor=none;fillColor=none;spacingLeft=4;spacingRight=4;overflow=hidden;rotatable=0;points=[[0,0.5],[1,0.5]];portConstraint=eastwest;fontSize=12;rounded=1;glass=0;shadow=1;swimlaneFillColor=none;" vertex="1" parent="-moWh7qVt0uN1S0JNPq3-13">
          <mxGeometry y="26" width="160" height="30" as="geometry" />
        </mxCell>
        <mxCell id="-moWh7qVt0uN1S0JNPq3-17" value="GameManager.cs" style="swimlane;fontStyle=0;childLayout=stackLayout;horizontal=1;startSize=26;horizontalStack=0;resizeParent=1;resizeParentMax=0;resizeLast=0;collapsible=1;marginBottom=0;align=center;fontSize=14;rounded=1;glass=0;shadow=1;swimlaneFillColor=none;" vertex="1" parent="1">
          <mxGeometry x="180" y="560" width="160" height="56" as="geometry" />
        </mxCell>
        <mxCell id="-moWh7qVt0uN1S0JNPq3-18" value="OnScoreEvent" style="text;strokeColor=none;fillColor=none;spacingLeft=4;spacingRight=4;overflow=hidden;rotatable=0;points=[[0,0.5],[1,0.5]];portConstraint=eastwest;fontSize=12;rounded=1;glass=0;shadow=1;swimlaneFillColor=none;" vertex="1" parent="-moWh7qVt0uN1S0JNPq3-17">
          <mxGeometry y="26" width="160" height="30" as="geometry" />
        </mxCell>
        <mxCell id="-moWh7qVt0uN1S0JNPq3-19" value="Levels.cs    " style="swimlane;fontStyle=0;childLayout=stackLayout;horizontal=1;startSize=26;horizontalStack=0;resizeParent=1;resizeParentMax=0;resizeLast=0;collapsible=1;marginBottom=0;align=center;fontSize=14;rounded=1;glass=0;shadow=1;swimlaneFillColor=none;" vertex="1" parent="1">
          <mxGeometry x="50" y="270" width="160" height="56" as="geometry" />
        </mxCell>
        <mxCell id="-moWh7qVt0uN1S0JNPq3-20" value="OnLevelLoad" style="text;strokeColor=none;fillColor=none;spacingLeft=4;spacingRight=4;overflow=hidden;rotatable=0;points=[[0,0.5],[1,0.5]];portConstraint=eastwest;fontSize=12;rounded=1;glass=0;shadow=1;swimlaneFillColor=none;" vertex="1" parent="-moWh7qVt0uN1S0JNPq3-19">
          <mxGeometry y="26" width="160" height="30" as="geometry" />
        </mxCell>
        <mxCell id="-moWh7qVt0uN1S0JNPq3-21" value="UIController " style="swimlane;fontStyle=0;childLayout=stackLayout;horizontal=1;startSize=26;horizontalStack=0;resizeParent=1;resizeParentMax=0;resizeLast=0;collapsible=1;marginBottom=0;align=center;fontSize=14;rounded=1;glass=0;shadow=1;swimlaneFillColor=none;" vertex="1" parent="1">
          <mxGeometry x="10" y="410" width="160" height="56" as="geometry" />
        </mxCell>
        <mxCell id="-moWh7qVt0uN1S0JNPq3-22" value="OnUIEvent" style="text;strokeColor=none;fillColor=none;spacingLeft=4;spacingRight=4;overflow=hidden;rotatable=0;points=[[0,0.5],[1,0.5]];portConstraint=eastwest;fontSize=12;rounded=1;glass=0;shadow=1;swimlaneFillColor=none;" vertex="1" parent="-moWh7qVt0uN1S0JNPq3-21">
          <mxGeometry y="26" width="160" height="30" as="geometry" />
        </mxCell>
        <mxCell id="-moWh7qVt0uN1S0JNPq3-23" value="Ball.cs" style="swimlane;fontStyle=0;childLayout=stackLayout;horizontal=1;startSize=26;horizontalStack=0;resizeParent=1;resizeParentMax=0;resizeLast=0;collapsible=1;marginBottom=0;align=center;fontSize=14;glass=0;shadow=1;sketch=0;rounded=1;swimlaneFillColor=none;" vertex="1" parent="1">
          <mxGeometry x="650" y="456" width="160" height="56" as="geometry" />
        </mxCell>
        <mxCell id="-moWh7qVt0uN1S0JNPq3-24" value="BallEvent" style="text;strokeColor=none;fillColor=none;spacingLeft=4;spacingRight=4;overflow=hidden;rotatable=0;points=[[0,0.5],[1,0.5]];portConstraint=eastwest;fontSize=12;rounded=1;glass=0;shadow=1;swimlaneFillColor=none;" vertex="1" parent="-moWh7qVt0uN1S0JNPq3-23">
          <mxGeometry y="26" width="160" height="30" as="geometry" />
        </mxCell>
        <mxCell id="-moWh7qVt0uN1S0JNPq3-28" style="edgeStyle=orthogonalEdgeStyle;rounded=1;orthogonalLoop=1;jettySize=auto;html=1;entryX=0;entryY=0.25;entryDx=0;entryDy=0;startArrow=halfCircle;startFill=0;endArrow=oval;endFill=1;" edge="1" parent="1" source="-moWh7qVt0uN1S0JNPq3-3" target="-moWh7qVt0uN1S0JNPq3-23">
          <mxGeometry relative="1" as="geometry" />
        </mxCell>
      </root>
    </mxGraphModel>
  </diagram>
</mxfile>
